<svg width="1200" height="750" viewBox="0 0 1200 750" fill="none" xmlns="http://www.w3.org/2000/svg">
  <rect width="1200" height="750" rx="48" fill="#0B1220"/>
  <rect x="60" y="60" width="1080" height="630" rx="36" fill="url(#paint0_linear)"/>
  <!-- Brain / AI circle -->
  <circle cx="600" cy="260" r="100" fill="#132238" stroke="#7DD3FC" stroke-width="4"/>
  <text x="600" y="250" fill="#7DD3FC" font-family="Inter, Arial, sans-serif" font-size="28" font-weight="700" text-anchor="middle">LangGraph</text>
  <text x="600" y="288" fill="#C9D4E5" font-family="Inter, Arial, sans-serif" font-size="22" text-anchor="middle">State Machines</text>
  <!-- Nodes below -->
  <rect x="160" y="430" width="200" height="60" rx="12" fill="#132238"/>
  <text x="260" y="468" fill="#7DD3FC" font-family="Inter, Arial, sans-serif" font-size="20" font-weight="600" text-anchor="middle">Purchase Decision</text>
  <rect x="420" y="430" width="180" height="60" rx="12" fill="#132238"/>
  <text x="510" y="468" fill="#7DD3FC" font-family="Inter, Arial, sans-serif" font-size="20" font-weight="600" text-anchor="middle">CPF Projection</text>
  <rect x="650" y="430" width="200" height="60" rx="12" fill="#132238"/>
  <text x="750" y="468" fill="#7DD3FC" font-family="Inter, Arial, sans-serif" font-size="20" font-weight="600" text-anchor="middle">Scenario Compare</text>
  <rect x="900" y="430" width="180" height="60" rx="12" fill="#132238"/>
  <text x="990" y="468" fill="#7DD3FC" font-family="Inter, Arial, sans-serif" font-size="20" font-weight="600" text-anchor="middle">Profile Update</text>
  <!-- Lines from brain to nodes -->
  <line x1="530" y1="340" x2="260" y2="430" stroke="#7DD3FC" stroke-width="2" stroke-opacity="0.4"/>
  <line x1="570" y1="350" x2="510" y2="430" stroke="#7DD3FC" stroke-width="2" stroke-opacity="0.4"/>
  <line x1="630" y1="350" x2="750" y2="430" stroke="#7DD3FC" stroke-width="2" stroke-opacity="0.4"/>
  <line x1="670" y1="340" x2="990" y2="430" stroke="#7DD3FC" stroke-width="2" stroke-opacity="0.4"/>
  <!-- Bottom label -->
  <rect x="174" y="560" width="852" height="78" rx="18" fill="#0B1220" fill-opacity="0.58"/>
  <text x="600" y="598" fill="#E5ECF6" font-family="Inter, Arial, sans-serif" font-size="32" font-weight="700" text-anchor="middle">Arlo MBA</text>
  <text x="600" y="632" fill="#98A4B8" font-family="Inter, Arial, sans-serif" font-size="22" text-anchor="middle">Personal finance decision engine — LangGraph + FastAPI + React</text>
  <defs>
    <linearGradient id="paint0_linear" x1="120" y1="120" x2="1080" y2="630" gradientUnits="userSpaceOnUse">
      <stop stop-color="#101826"/>
      <stop offset="1" stop-color="#09111B"/>
    </linearGradient>
  </defs>
</svg>
